HIERARCHY
ROOT root
{
	OFFSET	0	13.1	24.9
	CHANNELS 6  Xposition Yposition Zposition Xrotation Yrotation Zrotation
	JOINT spine_1
	{
		OFFSET	0	9.99999	0
		CHANNELS 3  Xrotation Yrotation Zrotation
		JOINT spine_2
		{
			OFFSET	0	112	-10
			CHANNELS 3  Xrotation Yrotation Zrotation
			JOINT spine_3
			{
				OFFSET	0	206.5	19.3
				CHANNELS 3  Xrotation Yrotation Zrotation
				JOINT spine_4
				{
					OFFSET	0	110.4	14.6
					CHANNELS 3  Xrotation Yrotation Zrotation
					JOINT neck_1
					{
						OFFSET	0	71.8	-50.3
						CHANNELS 3  Xrotation Yrotation Zrotation
						JOINT neck_2
						{
							OFFSET	0	86.2	-25.8
							CHANNELS 3  Xrotation Yrotation Zrotation
							JOINT head_ee
							{
								OFFSET	0	179.8	-8.7
								CHANNELS 3  Xrotation Yrotation Zrotation
								End Site
								{
									OFFSET	1	0	0
								}
							}
						}
					}
					JOINT left_clavicle
					{
						OFFSET	-43.2	22.4	-70.8
						CHANNELS 3  Xrotation Yrotation Zrotation
						JOINT left_shoulder
						{
							OFFSET	-93.9	-5.79999	48.7
							CHANNELS 3  Xrotation Yrotation Zrotation
							JOINT left_elbow
							{
								OFFSET	-291.4	-30.8	15.2
								CHANNELS 3  Xrotation Yrotation Zrotation
								JOINT left_lowarm_twist
								{
									OFFSET	-110.7	-3.89999	13.6
									CHANNELS 3  Xrotation Yrotation Zrotation
									JOINT left_hand
									{
										OFFSET	-110.7	-3.89999	13.6
										CHANNELS 3  Xrotation Yrotation Zrotation
										JOINT left_ee
										{
											OFFSET	-80.8	-5.10001	12.1
											CHANNELS 3  Xrotation Yrotation Zrotation
											End Site
											{
												OFFSET	1	0	0
											}
										}
									}
								}
							}
						}
					}
					JOINT right_clavicle
					{
						OFFSET	43.2	22.4	-70.8
						CHANNELS 3  Xrotation Yrotation Zrotation
						JOINT right_shoulder
						{
							OFFSET	93.9	-5.79999	48.7
							CHANNELS 3  Xrotation Yrotation Zrotation
							JOINT right_elbow
							{
								OFFSET	291.4	-30.8	15.2
								CHANNELS 3  Xrotation Yrotation Zrotation
								JOINT right_lowarm_twist
								{
									OFFSET	110.7	-3.89999	13.6
									CHANNELS 3  Xrotation Yrotation Zrotation
									JOINT right_hand
									{
										OFFSET	110.7	-3.89999	13.6
										CHANNELS 3  Xrotation Yrotation Zrotation
										JOINT right_ee
										{
											OFFSET	80.8	-5.10001	12.1
											CHANNELS 3  Xrotation Yrotation Zrotation
											End Site
											{
												OFFSET	1	0	0
											}
										}
									}
								}
							}
						}
					}
				}
			}
		}
	}
	JOINT left_hip
	{
		OFFSET	-82.8	-127.5	0.300001
		CHANNELS 3  Xrotation Yrotation Zrotation
		JOINT left_knee
		{
			OFFSET	-28.2	-396.7	2.2
			CHANNELS 3  Xrotation Yrotation Zrotation
			JOINT left_ankle
			{
				OFFSET	-11.7	-411.3	35.4
				CHANNELS 3  Xrotation Yrotation Zrotation
				JOINT left_toes
				{
					OFFSET	0	-60	-88.6
					CHANNELS 3  Xrotation Yrotation Zrotation
					JOINT left_foot_ee
					{
						OFFSET	-22.5	-16.5	-42.2
						CHANNELS 3  Xrotation Yrotation Zrotation
						End Site
						{
							OFFSET	1	0	0
						}
					}
				}
			}
		}
	}
	JOINT right_hip
	{
		OFFSET	82.8	-127.5	0.300001
		CHANNELS 3  Xrotation Yrotation Zrotation
		JOINT right_knee
		{
			OFFSET	28.2	-396.7	2.2
			CHANNELS 3  Xrotation Yrotation Zrotation
			JOINT right_ankle
			{
				OFFSET	11.7	-411.3	35.4
				CHANNELS 3  Xrotation Yrotation Zrotation
				JOINT right_toes
				{
					OFFSET	0	-60	-88.6
					CHANNELS 3  Xrotation Yrotation Zrotation
					JOINT right_foot_ee
					{
						OFFSET	22.5	-16.5	-42.2
						CHANNELS 3  Xrotation Yrotation Zrotation
						End Site
						{
							OFFSET	1	0	0
						}
					}
				}
			}
		}
	}
}
MOTION
Frames: 8
Frame Time: 0.02
3177.02 653.055 -1669.29 1.63657811993 28.4615169897 -6.58362549756 -2.24421 0.51386 2.0313 -2.242 0.38359 2.05987 -2.22531 -0.139171 2.09064 -2.23136 0.192679 2.08639 8.5667 1.0169 -0.913149 8.58169 2.51698 -1.07423 -0.0 0.0 -0.0 6.10418 7.62812 11.8284 -10.6428 13.2007 63.7286 0.430111 -12.028 0.045313 -33.0671 -2.24582 3.5196 2.35776 6.22073 18.3372 -0.0 0.0 -0.0 10.9 19.3709 -21.4721 -12.8266 34.854 -41.1033 1.27065 32.1866 -0.366607 -44.006 3.38692 -4.3333 -9.50618 -30.3906 43.6022 0.0 0.0 0.0 28.0558 -18.518 7.97395 -2.39754 0.0912648 0.356597 10.9327 24.7863 -1.61921 21.6871 -0.0 -0.0 -0.0 0.0 -0.0 -17.9736 -0.477614 5.63329 -9.36186 -0.270791 -1.40964 39.5601 -20.6137 5.00214 -11.0499 0.0 0.0 0.0 0.0 0.0 
3165.6694727 655.578 -1683.86893103 0.335872976617 26.345503066 -6.20993938848 -2.15123 0.616742 2.35902 -2.14826 0.465426 2.39346 -2.12497 -0.138316 2.43434 -2.13315 0.247763 2.42565 9.49859 1.18739 -1.05952 9.51978 2.9233 -1.27062 -0.0 0.0 -0.0 6.22813 8.05651 12.0473 -8.36964 11.896 63.5146 0.462097 -12.8936 0.0522151 -33.422 -2.28029 3.54933 2.19835 6.5915 17.3739 -0.0 0.0 -0.0 11.5173 18.9491 -22.901 -12.2442 33.4718 -42.3684 1.29554 32.6898 -0.379959 -42.9785 3.27335 -4.26628 -9.37915 -30.6477 42.2049 0.0 0.0 0.0 28.8925 -18.1761 7.86266 -5.10353 0.176228 0.763157 11.3431 25.2336 -1.68183 22.4213 -0.0 -0.0 -0.0 0.0 -0.0 -19.8968 -0.837186 6.12148 -4.49141 -0.158692 -0.670854 37.1141 -19.7176 4.74704 -12.5323 0.0 0.0 0.0 0.0 0.0 
3149.26437487 656.847 -1707.03296986 1.12813468658 24.7398975447 -6.52837765844 -2.12597 0.703795 2.43238 -2.12284 0.547638 2.47221 -2.09504 -0.0766364 2.53094 -2.10384 0.323912 2.51131 8.91902 1.59704 -1.07133 8.94774 3.61825 -1.26401 -0.0 0.0 -0.0 6.4166 5.80899 12.4282 -5.20647 12.7567 63.4028 0.472415 -13.1715 0.0545417 -34.1666 -2.35322 3.61101 2.03889 6.20863 16.1418 -0.0 0.0 -0.0 11.6951 18.7811 -23.3171 -10.1241 29.6947 -46.2899 1.21726 31.0885 -0.338599 -44.8668 3.48297 -4.38788 -9.12994 -28.9237 42.7025 0.0 0.0 0.0 28.0619 -17.8962 7.79371 -8.81004 0.261251 1.3255 12.8259 24.2406 -1.88235 24.1477 -0.0 -0.0 -0.0 0.0 -0.0 -19.7095 1.95575 6.89559 -9.53579 -0.273629 -1.43618 36.5665 -22.6033 4.75967 -11.2597 0.0 0.0 0.0 0.0 0.0 
3148.92194171 656.847 -1706.77873992 1.13293362938 25.2613803109 -6.53973253534 -2.12597 0.703795 2.43238 -2.12284 0.547638 2.47221 -2.09504 -0.0766364 2.53094 -2.10384 0.323912 2.51131 8.91902 1.59704 -1.07133 8.94774 3.61825 -1.26401 -0.0 0.0 -0.0 6.4166 5.80899 12.4282 -5.20647 12.7567 63.4028 0.472415 -13.1715 0.0545417 -34.1666 -2.35322 3.61101 2.03889 6.20863 16.1418 -0.0 0.0 -0.0 11.6951 18.7811 -23.3171 -10.1241 29.6947 -46.2899 1.21726 31.0885 -0.338599 -44.8668 3.48297 -4.38788 -9.12994 -28.9237 42.7025 0.0 0.0 0.0 28.0619 -17.8962 7.79371 -8.81004 0.261251 1.3255 12.8259 24.2406 -1.88235 24.1477 -0.0 -0.0 -0.0 0.0 -0.0 -19.7095 1.95575 6.89559 -9.53579 -0.273629 -1.43618 36.5665 -22.6033 4.75967 -11.2597 0.0 0.0 0.0 0.0 0.0 
3136.5216452 658.818 -1728.44104866 2.72687141983 23.8609007547 -7.15392650603 -2.66893 0.816794 2.63592 -2.6653 0.647471 2.68251 -2.62937 -0.0572042 2.75889 -2.63979 0.379063 2.73334 9.4776 1.99553 -0.884787 9.51151 4.09476 -1.05058 -0.0 0.0 -0.0 6.35178 6.92356 12.2922 -4.04189 10.9285 62.7252 0.516551 -14.3533 0.0650421 -34.5551 -2.39158 3.64282 2.0913 5.0223 16.0595 -0.0 0.0 -0.0 11.8029 19.5026 -23.5168 -10.269 29.2796 -48.1502 1.14339 29.5263 -0.301318 -43.5449 3.33581 -4.30347 -9.03431 -29.064 41.7426 0.0 0.0 0.0 28.008 -17.4215 8.23325 -15.3956 0.322055 2.33359 11.2286 24.2727 -1.65699 24.4135 -0.0 -0.0 -0.0 0.0 -0.0 -20.6898 1.73374 7.6779 -10.5696 -0.288838 -1.59408 35.9421 -22.8069 4.70121 -11.3683 0.0 0.0 0.0 0.0 0.0 
3102.39144677 664.911 -1778.35641987 6.9929755065 24.936618779 -8.18584276015 -3.32735 0.450307 2.33341 -3.32437 0.300956 2.35732 -3.30751 -0.337602 2.35235 -3.31523 0.0380359 2.37613 9.40942 2.16749 -0.769698 9.44449 4.27479 -0.907575 -0.0 0.0 -0.0 6.36701 4.75704 12.3461 0.630074 10.8832 62.5117 0.55826 -15.4587 0.0757716 -34.8948 -2.42531 3.67042 2.21652 4.36022 16.6721 -0.0 0.0 -0.0 11.9161 19.1326 -23.8004 -10.7524 25.0286 -51.9087 0.90732 24.2017 -0.194531 -43.3798 3.31757 -4.2927 -7.69578 -24.2276 37.3371 0.0 0.0 0.0 24.2199 -20.714 10.4029 -24.8109 0.2076 3.77213 11.9738 22.2504 -1.74549 25.8782 -0.0 -0.0 -0.0 0.0 -0.0 -16.9274 3.454 9.23984 -24.2654 -0.220672 -3.68944 39.2318 -23.9144 5.05994 -11.0375 0.0 0.0 0.0 0.0 0.0 
3101.27363129 664.911 -1777.58308624 7.0268631325 25.5215190586 -8.26534565837 -3.32735 0.450307 2.33341 -3.32437 0.300956 2.35732 -3.30751 -0.337602 2.35235 -3.31523 0.0380359 2.37613 9.40942 2.16749 -0.769698 9.44449 4.27479 -0.907575 -0.0 0.0 -0.0 6.36701 4.75704 12.3461 0.630074 10.8832 62.5117 0.55826 -15.4587 0.0757716 -34.8948 -2.42531 3.67042 2.21652 4.36022 16.6721 -0.0 0.0 -0.0 11.9161 19.1326 -23.8004 -10.7524 25.0286 -51.9087 0.90732 24.2017 -0.194531 -43.3798 3.31757 -4.2927 -7.69578 -24.2276 37.3371 0.0 0.0 0.0 24.2199 -20.714 10.4029 -24.8109 0.2076 3.77213 11.9738 22.2504 -1.74549 25.8782 -0.0 -0.0 -0.0 0.0 -0.0 -16.9274 3.454 9.23984 -24.2654 -0.220672 -3.68944 39.2318 -23.9144 5.05994 -11.0375 0.0 0.0 0.0 0.0 0.0 
3100.82511259 664.911 -1777.26797939 7.04083082317 25.7573785088 -8.29762541053 -3.32735 0.450307 2.33341 -3.32437 0.300956 2.35732 -3.30751 -0.337602 2.35235 -3.31523 0.0380359 2.37613 9.40942 2.16749 -0.769698 9.44449 4.27479 -0.907575 -0.0 0.0 -0.0 6.36701 4.75704 12.3461 0.630074 10.8832 62.5117 0.55826 -15.4587 0.0757716 -34.8948 -2.42531 3.67042 2.21652 4.36022 16.6721 -0.0 0.0 -0.0 11.9161 19.1326 -23.8004 -10.7524 25.0286 -51.9087 0.90732 24.2017 -0.194531 -43.3798 3.31757 -4.2927 -7.69578 -24.2276 37.3371 0.0 0.0 0.0 24.2199 -20.714 10.4029 -24.8109 0.2076 3.77213 11.9738 22.2504 -1.74549 25.8782 -0.0 -0.0 -0.0 0.0 -0.0 -16.9274 3.454 9.23984 -24.2654 -0.220672 -3.68944 39.2318 -23.9144 5.05994 -11.0375 0.0 0.0 0.0 0.0 0.0 
